<?xml version="1.0" encoding="UTF-8" standalone="no"?>
<!-- Created with Inkscape (http://www.inkscape.org/) -->

<svg
   xmlns:dc="http://purl.org/dc/elements/1.1/"
   xmlns:cc="http://creativecommons.org/ns#"
   xmlns:rdf="http://www.w3.org/1999/02/22-rdf-syntax-ns#"
   xmlns:svg="http://www.w3.org/2000/svg"
   xmlns="http://www.w3.org/2000/svg"
   xmlns:xlink="http://www.w3.org/1999/xlink"
   xmlns:sodipodi="http://sodipodi.sourceforge.net/DTD/sodipodi-0.dtd"
   xmlns:inkscape="http://www.inkscape.org/namespaces/inkscape"
   width="1000"
   height="100"
   id="svg2"
   version="1.1"
   inkscape:version="0.48.2 r9819"
   sodipodi:docname="banner.svg">
  <defs
     id="defs4">
    <linearGradient
       inkscape:collect="always"
       id="linearGradient3920">
      <stop
         style="stop-color:#35546a;stop-opacity:0"
         offset="0"
         id="stop3922" />
      <stop
         style="stop-color:#000000;stop-opacity:1"
         offset="1"
         id="stop3924" />
    </linearGradient>
    <inkscape:path-effect
       effect="skeletal"
       id="path-effect3036"
       is_visible="true"
       pattern="M 0,0 1,0"
       copytype="single_stretched"
       prop_scale="1"
       scale_y_rel="false"
       spacing="0"
       normal_offset="0"
       tang_offset="0"
       prop_units="false"
       vertical_pattern="false"
       fuse_tolerance="0" />
    <inkscape:path-effect
       effect="skeletal"
       id="path-effect3036-1"
       is_visible="true"
       pattern="m 177.9955,-55.28091 -1.75781,0 0,-11.2012 c -0.42318,0.4037 -0.9782,0.8073 -1.66504,1.211 -0.68685,0.4036 -1.3037,0.7063 -1.85058,0.9082 l 0,-1.6993 c 0.98306,-0.4622 1.84244,-1.0221 2.57812,-1.6796 0.73567,-0.6576 1.2565,-1.2956 1.5625,-1.9141 l 1.13281,0 z"
       copytype="repeated"
       prop_scale="1"
       scale_y_rel="false"
       spacing="10"
       normal_offset="0"
       tang_offset="0"
       prop_units="false"
       vertical_pattern="false"
       fuse_tolerance="0" />
    <radialGradient
       inkscape:collect="always"
       xlink:href="#linearGradient3920"
       id="radialGradient3926"
       cx="392.61783"
       cy="786.86365"
       fx="392.61783"
       fy="786.86365"
       r="500"
       gradientTransform="matrix(2.7995339,-1.1612761e-8,0,0.27123312,-719.35508,764.89705)"
       gradientUnits="userSpaceOnUse" />
  </defs>
  <sodipodi:namedview
     id="base"
     pagecolor="#ffffff"
     bordercolor="#666666"
     borderopacity="1.0"
     inkscape:pageopacity="0.0"
     inkscape:pageshadow="2"
     inkscape:zoom="1"
     inkscape:cx="469.87943"
     inkscape:cy="23.860902"
     inkscape:document-units="px"
     inkscape:current-layer="layer1"
     showgrid="false"
     inkscape:window-width="1600"
     inkscape:window-height="838"
     inkscape:window-x="-8"
     inkscape:window-y="-8"
     inkscape:window-maximized="1" />
  <metadata
     id="metadata7">
    <rdf:RDF>
      <cc:Work
         rdf:about="">
        <dc:format>image/svg+xml</dc:format>
        <dc:type
           rdf:resource="http://purl.org/dc/dcmitype/StillImage" />
        <dc:title></dc:title>
      </cc:Work>
    </rdf:RDF>
  </metadata>
  <g
     inkscape:label="Layer 1"
     inkscape:groupmode="layer"
     id="layer1"
     transform="translate(0,-952.36218)">
    <rect
       style="fill:#5284a7;fill-opacity:1;stroke:#552200;stroke-width:0;stroke-miterlimit:4;stroke-opacity:1;stroke-dasharray:none;stroke-dashoffset:0"
       id="rect3891"
       width="1000"
       height="100"
       x="0"
       y="952.36218" />
    <g
       id="g3956">
      <path
         style="fill:none;stroke:#002255;stroke-width:30;stroke-linecap:butt;stroke-linejoin:miter;stroke-miterlimit:4;stroke-opacity:1;stroke-dasharray:none"
         d="m 163.57143,984.07647 710,0 c 85.92329,0 98.57143,-2.1965 98.57143,15.71423 0,22.0991 -11.89102,18.5715 -97.85714,18.5715 l -502.85715,0 c -27.72864,0 -27.85714,9.0003 -27.85714,33.5714"
         id="path3888"
         inkscape:connector-curvature="0"
         sodipodi:nodetypes="cscscc" />
      <path
         sodipodi:nodetypes="cscscc"
         inkscape:connector-curvature="0"
         id="path2985"
         d="m 163.57143,984.07647 710,0 c 85.92329,0 98.57143,-2.1965 98.57143,15.71423 0,22.0991 -11.89102,18.5715 -97.85714,18.5715 l -502.85715,0 c -27.72864,0 -27.85714,9.0003 -27.85714,33.5714"
         style="fill:none;stroke:#00cbd4;stroke-width:24.39999962;stroke-linecap:butt;stroke-linejoin:miter;stroke-miterlimit:4;stroke-opacity:1;stroke-dasharray:none" />
      <g
         id="g3953">
        <path
           style="fill:#ffffff;fill-opacity:1;stroke:none"
           d="m 169.3892,990.98307 -1.75781,0 0,-11.2012 c -0.42318,0.4037 -0.9782,0.8073 -1.66504,1.211 -0.68685,0.4036 -1.3037,0.7063 -1.85058,0.9082 l 0,-1.6993 c 0.98306,-0.4622 1.84244,-1.0221 2.57812,-1.6796 0.73567,-0.6576 1.2565,-1.2956 1.5625,-1.9141 l 1.13281,0 z m 15.27343,0 -1.75781,0 0,-11.2012 c -0.42318,0.4037 -0.9782,0.8073 -1.66504,1.211 -0.68685,0.4036 -1.3037,0.7063 -1.85058,0.9082 l 0,-1.6993 c 0.98306,-0.4622 1.84244,-1.0221 2.57812,-1.6796 0.73567,-0.6576 1.2565,-1.2956 1.5625,-1.9141 l 1.13281,0 z m 15.27343,0 -1.75781,0 0,-11.2012 c -0.42318,0.4037 -0.9782,0.8073 -1.66504,1.211 -0.68685,0.4036 -1.3037,0.7063 -1.85058,0.9082 l 0,-1.6993 c 0.98306,-0.4622 1.84244,-1.0221 2.57812,-1.6796 0.73567,-0.6576 1.2565,-1.2956 1.5625,-1.9141 l 1.13281,0 z m 15.27343,0 -1.75781,0 0,-11.2012 c -0.42318,0.4037 -0.9782,0.8073 -1.66504,1.211 -0.68685,0.4036 -1.3037,0.7063 -1.85058,0.9082 l 0,-1.6993 c 0.98306,-0.4622 1.84244,-1.0221 2.57812,-1.6796 0.73567,-0.6576 1.2565,-1.2956 1.5625,-1.9141 l 1.13281,0 z m 15.27343,0 -1.75781,0 0,-11.2012 c -0.42318,0.4037 -0.9782,0.8073 -1.66504,1.211 -0.68685,0.4036 -1.3037,0.7063 -1.85058,0.9082 l 0,-1.6993 c 0.98306,-0.4622 1.84244,-1.0221 2.57812,-1.6796 0.73567,-0.6576 1.2565,-1.2956 1.5625,-1.9141 l 1.13281,0 z m 15.27343,0 -1.75781,0 0,-11.2012 c -0.42318,0.4037 -0.9782,0.8073 -1.66504,1.211 -0.68685,0.4036 -1.3037,0.7063 -1.85058,0.9082 l 0,-1.6993 c 0.98306,-0.4622 1.84244,-1.0221 2.57812,-1.6796 0.73567,-0.6576 1.2565,-1.2956 1.5625,-1.9141 l 1.13281,0 z m 15.27343,0 -1.75781,0 0,-11.2012 c -0.42318,0.4037 -0.9782,0.8073 -1.66504,1.211 -0.68685,0.4036 -1.3037,0.7063 -1.85058,0.9082 l 0,-1.6993 c 0.98306,-0.4622 1.84244,-1.0221 2.57812,-1.6796 0.73567,-0.6576 1.2565,-1.2956 1.5625,-1.9141 l 1.13281,0 z m 15.27343,0 -1.75781,0 0,-11.2012 c -0.42318,0.4037 -0.9782,0.8073 -1.66504,1.211 -0.68685,0.4036 -1.3037,0.7063 -1.85058,0.9082 l 0,-1.6993 c 0.98306,-0.4622 1.84244,-1.0221 2.57812,-1.6796 0.73567,-0.6576 1.2565,-1.2956 1.5625,-1.9141 l 1.13281,0 z m 15.27343,0 -1.75781,0 0,-11.2012 c -0.42318,0.4037 -0.9782,0.8073 -1.66504,1.211 -0.68685,0.4036 -1.3037,0.7063 -1.85058,0.9082 l 0,-1.6993 c 0.98306,-0.4622 1.84244,-1.0221 2.57812,-1.6796 0.73567,-0.6576 1.2565,-1.2956 1.5625,-1.9141 l 1.13281,0 z m 15.27343,0 -1.75781,0 0,-11.2012 c -0.42318,0.4037 -0.9782,0.8073 -1.66504,1.211 -0.68685,0.4036 -1.3037,0.7063 -1.85058,0.9082 l 0,-1.6993 c 0.98306,-0.4622 1.84244,-1.0221 2.57812,-1.6796 0.73567,-0.6576 1.2565,-1.2956 1.5625,-1.9141 l 1.13281,0 z m 15.27343,0 -1.75781,0 0,-11.2012 c -0.42318,0.4037 -0.9782,0.8073 -1.66504,1.211 -0.68685,0.4036 -1.3037,0.7063 -1.85058,0.9082 l 0,-1.6993 c 0.98306,-0.4622 1.84244,-1.0221 2.57812,-1.6796 0.73567,-0.6576 1.2565,-1.2956 1.5625,-1.9141 l 1.13281,0 z m 15.27343,0 -1.75781,0 0,-11.2012 c -0.42318,0.4037 -0.9782,0.8073 -1.66504,1.211 -0.68685,0.4036 -1.3037,0.7063 -1.85058,0.9082 l 0,-1.6993 c 0.98306,-0.4622 1.84244,-1.0221 2.57812,-1.6796 0.73567,-0.6576 1.2565,-1.2956 1.5625,-1.9141 l 1.13281,0 z m 15.27343,0 -1.75781,0 0,-11.2012 c -0.42318,0.4037 -0.9782,0.8073 -1.66504,1.211 -0.68685,0.4036 -1.3037,0.7063 -1.85058,0.9082 l 0,-1.6993 c 0.98306,-0.4622 1.84244,-1.0221 2.57812,-1.6796 0.73567,-0.6576 1.2565,-1.2956 1.5625,-1.9141 l 1.13281,0 z m 15.27343,0 -1.75781,0 0,-11.2012 c -0.42318,0.4037 -0.9782,0.8073 -1.66504,1.211 -0.68685,0.4036 -1.3037,0.7063 -1.85058,0.9082 l 0,-1.6993 c 0.98306,-0.4622 1.84244,-1.0221 2.57812,-1.6796 0.73567,-0.6576 1.2565,-1.2956 1.5625,-1.9141 l 1.13281,0 z m 15.27343,0 -1.75781,0 0,-11.2012 c -0.42318,0.4037 -0.9782,0.8073 -1.66504,1.211 -0.68685,0.4036 -1.3037,0.7063 -1.85058,0.9082 l 0,-1.6993 c 0.98306,-0.4622 1.84244,-1.0221 2.57812,-1.6796 0.73567,-0.6576 1.2565,-1.2956 1.5625,-1.9141 l 1.13281,0 z m 15.27343,0 -1.75781,0 0,-11.2012 c -0.42318,0.4037 -0.9782,0.8073 -1.66504,1.211 -0.68685,0.4036 -1.3037,0.7063 -1.85058,0.9082 l 0,-1.6993 c 0.98306,-0.4622 1.84244,-1.0221 2.57812,-1.6796 0.73567,-0.6576 1.2565,-1.2956 1.5625,-1.9141 l 1.13281,0 z m 15.27343,0 -1.75781,0 0,-11.2012 c -0.42318,0.4037 -0.9782,0.8073 -1.66504,1.211 -0.68685,0.4036 -1.3037,0.7063 -1.85058,0.9082 l 0,-1.6993 c 0.98306,-0.4622 1.84244,-1.0221 2.57812,-1.6796 0.73567,-0.6576 1.2565,-1.2956 1.5625,-1.9141 l 1.13281,0 z m 15.27343,0 -1.75781,0 0,-11.2012 c -0.42318,0.4037 -0.9782,0.8073 -1.66504,1.211 -0.68685,0.4036 -1.3037,0.7063 -1.85058,0.9082 l 0,-1.6993 c 0.98306,-0.4622 1.84244,-1.0221 2.57812,-1.6796 0.73567,-0.6576 1.2565,-1.2956 1.5625,-1.9141 l 1.13281,0 z m 15.27343,0 -1.75781,0 0,-11.2012 c -0.42318,0.4037 -0.9782,0.8073 -1.66504,1.211 -0.68685,0.4036 -1.3037,0.7063 -1.85058,0.9082 l 0,-1.6993 c 0.98306,-0.4622 1.84244,-1.0221 2.57812,-1.6796 0.73567,-0.6576 1.2565,-1.2956 1.5625,-1.9141 l 1.13281,0 z m 15.27343,0 -1.75781,0 0,-11.2012 c -0.42318,0.4037 -0.9782,0.8073 -1.66504,1.211 -0.68685,0.4036 -1.3037,0.7063 -1.85058,0.9082 l 0,-1.6993 c 0.98306,-0.4622 1.84244,-1.0221 2.57812,-1.6796 0.73567,-0.6576 1.2565,-1.2956 1.5625,-1.9141 l 1.13281,0 z m 15.27343,0 -1.75781,0 0,-11.2012 c -0.42318,0.4037 -0.9782,0.8073 -1.66504,1.211 -0.68685,0.4036 -1.3037,0.7063 -1.85058,0.9082 l 0,-1.6993 c 0.98306,-0.4622 1.84244,-1.0221 2.57812,-1.6796 0.73567,-0.6576 1.2565,-1.2956 1.5625,-1.9141 l 1.13281,0 z m 15.27343,0 -1.75781,0 0,-11.2012 c -0.42318,0.4037 -0.9782,0.8073 -1.66504,1.211 -0.68685,0.4036 -1.3037,0.7063 -1.85058,0.9082 l 0,-1.6993 c 0.98306,-0.4622 1.84244,-1.0221 2.57812,-1.6796 0.73567,-0.6576 1.2565,-1.2956 1.5625,-1.9141 l 1.13281,0 z m 15.27343,0 -1.75781,0 0,-11.2012 c -0.42318,0.4037 -0.9782,0.8073 -1.66504,1.211 -0.68685,0.4036 -1.3037,0.7063 -1.85058,0.9082 l 0,-1.6993 c 0.98306,-0.4622 1.84244,-1.0221 2.57812,-1.6796 0.73567,-0.6576 1.2565,-1.2956 1.5625,-1.9141 l 1.13281,0 z m 15.27343,0 -1.75781,0 0,-11.2012 c -0.42318,0.4037 -0.9782,0.8073 -1.66504,1.211 -0.68685,0.4036 -1.3037,0.7063 -1.85058,0.9082 l 0,-1.6993 c 0.98306,-0.4622 1.84244,-1.0221 2.57812,-1.6796 0.73567,-0.6576 1.2565,-1.2956 1.5625,-1.9141 l 1.13281,0 z m 15.27343,0 -1.75781,0 0,-11.2012 c -0.42318,0.4037 -0.9782,0.8073 -1.66504,1.211 -0.68685,0.4036 -1.3037,0.7063 -1.85058,0.9082 l 0,-1.6993 c 0.98306,-0.4622 1.84244,-1.0221 2.57812,-1.6796 0.73567,-0.6576 1.2565,-1.2956 1.5625,-1.9141 l 1.13281,0 z m 15.27343,0 -1.75781,0 0,-11.2012 c -0.42318,0.4037 -0.9782,0.8073 -1.66504,1.211 -0.68685,0.4036 -1.3037,0.7063 -1.85058,0.9082 l 0,-1.6993 c 0.98306,-0.4622 1.84244,-1.0221 2.57812,-1.6796 0.73567,-0.6576 1.2565,-1.2956 1.5625,-1.9141 l 1.13281,0 z m 15.27343,0 -1.75781,0 0,-11.2012 c -0.42318,0.4037 -0.9782,0.8073 -1.66504,1.211 -0.68685,0.4036 -1.3037,0.7063 -1.85058,0.9082 l 0,-1.6993 c 0.98306,-0.4622 1.84244,-1.0221 2.57812,-1.6796 0.73567,-0.6576 1.2565,-1.2956 1.5625,-1.9141 l 1.13281,0 z m 15.27343,0 -1.75781,0 0,-11.2012 c -0.42318,0.4037 -0.9782,0.8073 -1.66504,1.211 -0.68685,0.4036 -1.3037,0.7063 -1.85058,0.9082 l 0,-1.6993 c 0.98306,-0.4622 1.84244,-1.0221 2.57812,-1.6796 0.73567,-0.6576 1.2565,-1.2956 1.5625,-1.9141 l 1.13281,0 z m 15.27343,0 -1.75781,0 0,-11.2012 c -0.42318,0.4037 -0.9782,0.8073 -1.66504,1.211 -0.68685,0.4036 -1.3037,0.7063 -1.85058,0.9082 l 0,-1.6993 c 0.98306,-0.4622 1.84244,-1.0221 2.57812,-1.6796 0.73567,-0.6576 1.2565,-1.2956 1.5625,-1.9141 l 1.13281,0 z m 15.27343,0 -1.75781,0 0,-11.2012 c -0.42318,0.4037 -0.9782,0.8073 -1.66504,1.211 -0.68685,0.4036 -1.3037,0.7063 -1.85058,0.9082 l 0,-1.6993 c 0.98306,-0.4622 1.84244,-1.0221 2.57812,-1.6796 0.73567,-0.6576 1.2565,-1.2956 1.5625,-1.9141 l 1.13281,0 z m 15.27343,0 -1.75781,0 0,-11.2012 c -0.42318,0.4037 -0.9782,0.8073 -1.66504,1.211 -0.68685,0.4036 -1.3037,0.7063 -1.85058,0.9082 l 0,-1.6993 c 0.98306,-0.4622 1.84244,-1.0221 2.57812,-1.6796 0.73567,-0.6576 1.2565,-1.2956 1.5625,-1.9141 l 1.13281,0 z m 15.27343,0 -1.75781,0 0,-11.2012 c -0.42318,0.4037 -0.9782,0.8073 -1.66504,1.211 -0.68685,0.4036 -1.3037,0.7063 -1.85058,0.9082 l 0,-1.6993 c 0.98306,-0.4622 1.84244,-1.0221 2.57812,-1.6796 0.73567,-0.6576 1.2565,-1.2956 1.5625,-1.9141 l 1.13281,0 z m 15.27343,0 -1.75781,0 0,-11.2012 c -0.42318,0.4037 -0.9782,0.8073 -1.66504,1.211 -0.68685,0.4036 -1.3037,0.7063 -1.85058,0.9082 l 0,-1.6993 c 0.98306,-0.4622 1.84244,-1.0221 2.57812,-1.6796 0.73567,-0.6576 1.2565,-1.2956 1.5625,-1.9141 l 1.13281,0 z m 15.27343,0 -1.75781,0 0,-11.2012 c -0.42318,0.4037 -0.9782,0.8073 -1.66504,1.211 -0.68685,0.4036 -1.3037,0.7063 -1.85058,0.9082 l 0,-1.6993 c 0.98306,-0.4622 1.84244,-1.0221 2.57812,-1.6796 0.73567,-0.6576 1.2565,-1.2956 1.5625,-1.9141 l 1.13281,0 z m 15.27343,0 -1.75781,0 0,-11.2012 c -0.42318,0.4037 -0.9782,0.8073 -1.66504,1.211 -0.68685,0.4036 -1.3037,0.7063 -1.85058,0.9082 l 0,-1.6993 c 0.98306,-0.4622 1.84244,-1.0221 2.57812,-1.6796 0.73567,-0.6576 1.2565,-1.2956 1.5625,-1.9141 l 1.13281,0 z m 15.27343,0 -1.75781,0 0,-11.2012 c -0.42318,0.4037 -0.9782,0.8073 -1.66504,1.211 -0.68685,0.4036 -1.3037,0.7063 -1.85058,0.9082 l 0,-1.6993 c 0.98306,-0.4622 1.84244,-1.0221 2.57812,-1.6796 0.73567,-0.6576 1.2565,-1.2956 1.5625,-1.9141 l 1.13281,0 z m 15.27343,0 -1.75781,0 0,-11.2012 c -0.42318,0.4037 -0.9782,0.8073 -1.66504,1.211 -0.68685,0.4036 -1.3037,0.7063 -1.85058,0.9082 l 0,-1.6993 c 0.98306,-0.4622 1.84244,-1.0221 2.57812,-1.6796 0.73567,-0.6576 1.2565,-1.2956 1.5625,-1.9141 l 1.13281,0 z m 15.27343,0 -1.75781,0 0,-11.2012 c -0.42318,0.4037 -0.9782,0.8073 -1.66504,1.211 -0.68685,0.4036 -1.3037,0.7063 -1.85058,0.9082 l 0,-1.6993 c 0.98306,-0.4622 1.84244,-1.0221 2.57812,-1.6796 0.73567,-0.6576 1.2565,-1.2956 1.5625,-1.9141 l 1.13281,0 z m 15.27343,0 -1.75781,0 0,-11.2012 c -0.42318,0.4037 -0.9782,0.8073 -1.66504,1.211 -0.68685,0.4036 -1.3037,0.7063 -1.85058,0.9082 l 0,-1.6993 c 0.98306,-0.4622 1.84244,-1.0221 2.57812,-1.6796 0.73567,-0.6576 1.2565,-1.2956 1.5625,-1.9141 l 1.13281,0 z m 15.27343,0 -1.75781,0 0,-11.2012 c -0.42318,0.4037 -0.9782,0.8073 -1.66504,1.211 -0.68685,0.4036 -1.3037,0.7063 -1.85058,0.9082 l 0,-1.6993 c 0.98306,-0.4622 1.84244,-1.0221 2.57812,-1.6796 0.73567,-0.6576 1.2565,-1.2956 1.5625,-1.9141 l 1.13281,0 z m 15.27343,0 -1.75781,0 0,-11.2012 c -0.42318,0.4037 -0.9782,0.8073 -1.66504,1.211 -0.68685,0.4036 -1.3037,0.7063 -1.85058,0.9082 l 0,-1.6993 c 0.98306,-0.4622 1.84244,-1.0221 2.57812,-1.6796 0.73567,-0.6576 1.2565,-1.2956 1.5625,-1.9141 l 1.13281,0 z m 15.27343,0 -1.75781,0 0,-11.2012 c -0.42318,0.4037 -0.9782,0.8073 -1.66504,1.211 -0.68685,0.4036 -1.3037,0.7063 -1.85058,0.9082 l 0,-1.6993 c 0.98306,-0.4622 1.84244,-1.0221 2.57812,-1.6796 0.73567,-0.6576 1.2565,-1.2956 1.5625,-1.9141 l 1.13281,0 z m 15.27343,0 -1.75781,0 0,-11.2012 c -0.42318,0.4037 -0.9782,0.8073 -1.66504,1.211 -0.68685,0.4036 -1.3037,0.7063 -1.85058,0.9082 l 0,-1.6993 c 0.98306,-0.4622 1.84244,-1.0221 2.57812,-1.6796 0.73567,-0.6576 1.2565,-1.2956 1.5625,-1.9141 l 1.13281,0 z m 15.27343,0 -1.75781,0 0,-11.2012 c -0.42318,0.4037 -0.9782,0.8073 -1.66504,1.211 -0.68685,0.4036 -1.3037,0.7063 -1.85058,0.9082 l 0,-1.6993 c 0.98306,-0.4622 1.84244,-1.0221 2.57812,-1.6796 0.73567,-0.6576 1.2565,-1.2956 1.5625,-1.9141 l 1.13281,0 z m 15.27343,0 -1.75781,0 0,-11.2012 c -0.42318,0.4037 -0.9782,0.8073 -1.66504,1.211 -0.68685,0.4036 -1.3037,0.7063 -1.85058,0.9082 l 0,-1.6993 c 0.98306,-0.4622 1.84244,-1.0221 2.57812,-1.6796 0.73567,-0.6576 1.2565,-1.2956 1.5625,-1.9141 l 1.13281,0 z m 15.27343,0 -1.75781,0 0,-11.2012 c -0.42318,0.4037 -0.9782,0.8073 -1.66504,1.211 -0.68685,0.4036 -1.3037,0.7063 -1.85058,0.9082 l 0,-1.6993 c 0.98306,-0.4622 1.84244,-1.0221 2.57812,-1.6796 0.73567,-0.6576 1.2565,-1.2956 1.5625,-1.9141 l 1.13281,0 z m 15.27343,0 -1.75781,0 0,-11.2012 c -0.42318,0.4037 -0.9782,0.8073 -1.66504,1.211 -0.68685,0.4036 -1.3037,0.7063 -1.85058,0.9082 l 0,-1.6993 c 0.98306,-0.4622 1.84244,-1.0221 2.57812,-1.6796 0.73567,-0.6576 1.2565,-1.2956 1.5625,-1.9141 l 1.13281,0 z m 15.29607,-0.024 c -0.58645,0.002 -1.17297,0.004 -1.75955,0.005 l -0.0326,-11.20122 c -0.42175,0.40493 -0.97531,0.81011 -1.66074,1.21561 -0.68544,0.40541 -1.3013,0.7096 -1.8475,0.91273 l -0.004,-1.6993 c 0.98125,-0.46442 1.83849,-1.02656 2.57171,-1.68609 0.7332,-0.65963 1.25164,-1.29918 1.55548,-1.9186 0.37721,-0.001 0.75446,-0.002 1.13174,-0.003 z m 15.27163,-0.0515 c -0.58529,0.002 -1.17064,0.003 -1.75606,0.005 l -0.0352,-11.20119 c -0.42212,0.40502 -0.97606,0.8104 -1.66174,1.21638 -0.68569,0.40588 -1.30159,0.71068 -1.84783,0.91448 l -0.006,-1.69931 c 0.98167,-0.46559 1.83948,-1.02837 2.57343,-1.68826 0.73395,-0.65999 1.25323,-1.29959 1.55764,-1.91903 0.37796,-10e-4 0.75596,-0.002 1.13398,-0.003 z m 15.24129,-0.0156 c -0.58412,-9.1e-4 -1.16831,-0.002 -1.75257,-0.002 l 0.009,-11.20111 c -0.42419,0.40334 -0.98021,0.80657 -1.66783,1.21013 -0.68764,0.40346 -1.30485,0.70629 -1.85199,0.90843 l -7.6e-4,-1.69929 c 0.98403,-0.46263 1.84475,-1.02243 2.58221,-1.67957 0.73746,-0.65725 1.26027,-1.29471 1.56784,-1.91287 0.37871,4.2e-4 0.75745,9.2e-4 1.13622,0.002 z m 15.2284,0.0747 c -0.58009,-0.005 -1.16132,-0.009 -1.74366,-0.013 l 0.0695,-11.20993 c -0.42765,0.40148 -0.98687,0.80238 -1.67706,1.20309 -0.69019,0.40062 -1.30878,0.70085 -1.8567,0.90042 l 0.008,-1.69996 c 0.98521,-0.45833 1.84891,-1.01502 2.59131,-1.66932 0.74239,-0.6544 1.27135,-1.28965 1.58439,-1.90663 0.38104,0.002 0.76256,0.005 1.14456,0.008 z m 14.8451,0.45852 c -0.55819,-0.0373 -1.11777,-0.0715 -1.6787,-0.10286 l 0.63499,-11.17787 c -0.45477,0.37814 -1.04093,0.75016 -1.75596,1.1198 -0.71502,0.36953 -1.34991,0.64564 -1.90892,0.82587 l 0.0658,-1.69799 c 1.01635,-0.42265 1.91843,-0.94059 2.70754,-1.55751 0.78911,-0.61703 1.36546,-1.22122 1.72087,-1.81883 0.39256,0.024 0.78549,0.0493 1.17879,0.0759 z m 13.49774,1.88564 c -0.42152,-0.1299 -0.85894,-0.24718 -1.31117,-0.35457 l 2.62826,-10.87804 c -0.5528,0.28061 -1.2323,0.53883 -2.02787,0.79275 -0.79557,0.25382 -1.47858,0.44485 -2.06864,0.55625 l 0.26466,-1.68053 c 1.10478,-0.29345 2.13017,-0.66791 3.08387,-1.13262 0.9537,-0.46481 1.70994,-0.92901 2.22702,-1.43213 0.44531,0.11677 0.89356,0.24171 1.34447,0.37552 z m 4.08066,4.40899 c -0.024,-0.39597 -0.0566,-0.75406 -0.10618,-1.07067 l 11.00964,-1.93811 c -0.4909,-0.45067 -1.02283,-1.04148 -1.64379,-1.73115 -0.0306,-0.034 -0.0611,-0.0678 -0.0913,-0.10125 0,0 0,0 0,0 -0.59748,-0.67222 -1.13981,-1.20744 -1.59486,-1.67078 l 1.51186,-0.77657 c 0.66367,0.63328 1.2792,1.2692 1.86647,1.8935 0.31157,0.32219 0.62012,0.63146 0.92927,0.92637 0.87255,0.83224 1.61255,1.44965 2.2881,1.79054 0.0782,0.52476 0.13836,1.03703 0.18286,1.53584 z m -1.32228,9.24998 c 0.10749,-0.083 0.20735,-0.2132 0.30286,-0.3826 l 9.53692,5.8127 c -0.04,-0.7026 -0.0423,-1.5281 -0.0793,-2.4582 -0.0369,-0.93 -0.10832,-1.6994 -0.14167,-2.349 l 1.64069,0.4526 c 0.13008,1.3035 0.22602,2.5696 0.32776,3.8114 0.10183,1.2417 0.16885,2.2897 0.3789,3.0689 -0.36556,0.5276 -0.76326,1.0488 -1.19399,1.5615 z m -9.50446,3.0499 c 0.13969,-0.019 0.27926,-0.038 0.4187,-0.058 0.39412,-0.06 0.78113,-0.1194 1.16041,-0.1802 l 1.72233,11.0855 c 0.38408,-0.4678 0.90315,-0.9612 1.54655,-1.495 0.64343,-0.5337 1.21695,-0.969 1.73147,-1.3005 l 0.39462,1.6525 c -0.94951,0.7056 -1.77493,1.4366 -2.46442,2.2246 -0.68946,0.7881 -1.16206,1.5001 -1.4064,2.1588 -0.24602,0.034 -0.49017,0.066 -0.73235,0.096 -0.16167,0.022 -0.32328,0.043 -0.48482,0.064 z m -14.44198,0.9969 c 0.56846,-0.012 1.13538,-0.026 1.70071,-0.043 l 0.34413,11.1991 c 0.41897,-0.4173 0.97023,-0.8396 1.6512,-1.2708 0.68098,-0.4311 1.2908,-0.7622 1.83305,-0.9917 l 0.0853,1.6964 c -0.98013,0.5126 -1.83648,1.108 -2.56872,1.7927 -0.73223,0.6848 -1.25056,1.3386 -1.54958,1.9663 -0.39018,0.011 -0.77984,0.022 -1.16898,0.031 z m -15.12479,0.084 c 0.44834,-2e-4 0.89664,-5e-4 1.34489,-10e-4 0.13697,-5e-4 0.27387,-9e-4 0.4107,0 l 0.008,11.2026 c 0.42137,-0.4035 0.97513,-0.8067 1.66193,-1.21 0.6868,-0.4031 1.30463,-0.7055 1.85249,-0.9073 l -4.2e-4,1.7009 c -0.98552,0.4619 -1.84538,1.0207 -2.57912,1.6774 -0.58206,0.5211 -1.02754,1.0299 -1.33788,1.5266 -0.0818,0.1297 -0.15434,0.2584 -0.21772,0.3863 -0.37908,4e-4 -0.75813,6e-4 -1.13716,8e-4 z m -15.23312,-0.043 c 0.58505,0 1.17002,0.01 1.75491,0.01 l -0.0539,11.2011 c 0.42553,-0.4017 0.98294,-0.8027 1.67207,-1.2034 0.68915,-0.4005 1.3076,-0.7007 1.85558,-0.9005 l -0.006,1.6992 c -0.98594,0.4585 -1.84877,1.0146 -2.58847,1.6688 -0.73969,0.6542 -1.26445,1.2896 -1.57402,1.9066 -0.37823,0 -0.75643,0 -1.1346,-0.01 z m -15.26744,-0.092 c 0.58637,0 1.17266,0.01 1.75887,0.011 l -0.0691,11.2011 c 0.42555,-0.4011 0.98296,-0.8013 1.67225,-1.2007 0.68929,-0.3993 1.30803,-0.6981 1.85617,-0.8966 l -0.0107,1.6993 c -0.98597,0.456 -1.84876,1.0105 -2.58833,1.6635 -0.73956,0.653 -1.26405,1.2878 -1.57365,1.9044 -0.37738,0 -0.75472,0 -1.13204,-0.01 z m -15.30191,-0.068 c 0.58769,0 1.17531,0 1.76285,0 l -0.0306,11.2012 c 0.42363,-0.4026 0.97912,-0.8046 1.66664,-1.206 0.68752,-0.4013 1.30509,-0.7017 1.85244,-0.9014 l -0.007,1.6993 c -0.98379,0.4583 -1.84387,1.0152 -2.58016,1.6705 -0.73629,0.6553 -1.25747,1.292 -1.56414,1.9097 -0.37653,-9e-4 -0.75303,0 -1.1295,0 z m -15.28801,0 1.75781,0 0,11.2012 c 0.42318,-0.4037 0.9782,-0.8073 1.66504,-1.211 0.68685,-0.4036 1.3037,-0.7063 1.85058,-0.9082 l 0,1.6993 c -0.98306,0.4622 -1.84244,1.0221 -2.57812,1.6796 -0.73567,0.6576 -1.2565,1.2956 -1.5625,1.9141 l -1.13281,0 z m -15.27343,0 1.75781,0 0,11.2012 c 0.42318,-0.4037 0.9782,-0.8073 1.66504,-1.211 0.68685,-0.4036 1.3037,-0.7063 1.85058,-0.9082 l 0,1.6993 c -0.98306,0.4622 -1.84244,1.0221 -2.57812,1.6796 -0.73567,0.6576 -1.2565,1.2956 -1.5625,1.9141 l -1.13281,0 z m -15.27343,0 1.75781,0 0,11.2012 c 0.42318,-0.4037 0.9782,-0.8073 1.66504,-1.211 0.68685,-0.4036 1.3037,-0.7063 1.85058,-0.9082 l 0,1.6993 c -0.98306,0.4622 -1.84244,1.0221 -2.57812,1.6796 -0.73567,0.6576 -1.2565,1.2956 -1.5625,1.9141 l -1.13281,0 z m -15.27343,0 1.75781,0 0,11.2012 c 0.42318,-0.4037 0.9782,-0.8073 1.66504,-1.211 0.68685,-0.4036 1.3037,-0.7063 1.85058,-0.9082 l 0,1.6993 c -0.98306,0.4622 -1.84244,1.0221 -2.57812,1.6796 -0.73567,0.6576 -1.2565,1.2956 -1.5625,1.9141 l -1.13281,0 z m -15.27343,0 1.75781,0 0,11.2012 c 0.42318,-0.4037 0.9782,-0.8073 1.66504,-1.211 0.68685,-0.4036 1.3037,-0.7063 1.85058,-0.9082 l 0,1.6993 c -0.98306,0.4622 -1.84244,1.0221 -2.57812,1.6796 -0.73567,0.6576 -1.2565,1.2956 -1.5625,1.9141 l -1.13281,0 z m -15.27343,0 1.75781,0 0,11.2012 c 0.42318,-0.4037 0.9782,-0.8073 1.66504,-1.211 0.68685,-0.4036 1.3037,-0.7063 1.85058,-0.9082 l 0,1.6993 c -0.98306,0.4622 -1.84244,1.0221 -2.57812,1.6796 -0.73567,0.6576 -1.2565,1.2956 -1.5625,1.9141 l -1.13281,0 z m -15.27343,0 1.75781,0 0,11.2012 c 0.42318,-0.4037 0.9782,-0.8073 1.66504,-1.211 0.68685,-0.4036 1.3037,-0.7063 1.85058,-0.9082 l 0,1.6993 c -0.98306,0.4622 -1.84244,1.0221 -2.57812,1.6796 -0.73567,0.6576 -1.2565,1.2956 -1.5625,1.9141 l -1.13281,0 z m -15.27343,0 1.75781,0 0,11.2012 c 0.42318,-0.4037 0.9782,-0.8073 1.66504,-1.211 0.68685,-0.4036 1.3037,-0.7063 1.85058,-0.9082 l 0,1.6993 c -0.98306,0.4622 -1.84244,1.0221 -2.57812,1.6796 -0.73567,0.6576 -1.2565,1.2956 -1.5625,1.9141 l -1.13281,0 z m -15.27343,0 1.75781,0 0,11.2012 c 0.42318,-0.4037 0.9782,-0.8073 1.66504,-1.211 0.68685,-0.4036 1.3037,-0.7063 1.85058,-0.9082 l 0,1.6993 c -0.98306,0.4622 -1.84244,1.0221 -2.57812,1.6796 -0.73567,0.6576 -1.2565,1.2956 -1.5625,1.9141 l -1.13281,0 z m -15.27343,0 1.75781,0 0,11.2012 c 0.42318,-0.4037 0.9782,-0.8073 1.66504,-1.211 0.68685,-0.4036 1.3037,-0.7063 1.85058,-0.9082 l 0,1.6993 c -0.98306,0.4622 -1.84244,1.0221 -2.57812,1.6796 -0.73567,0.6576 -1.2565,1.2956 -1.5625,1.9141 l -1.13281,0 z m -15.27343,0 1.75781,0 0,11.2012 c 0.42318,-0.4037 0.9782,-0.8073 1.66504,-1.211 0.68685,-0.4036 1.3037,-0.7063 1.85058,-0.9082 l 0,1.6993 c -0.98306,0.4622 -1.84244,1.0221 -2.57812,1.6796 -0.73567,0.6576 -1.2565,1.2956 -1.5625,1.9141 l -1.13281,0 z m -15.27343,0 1.75781,0 0,11.2012 c 0.42318,-0.4037 0.9782,-0.8073 1.66504,-1.211 0.68685,-0.4036 1.3037,-0.7063 1.85058,-0.9082 l 0,1.6993 c -0.98306,0.4622 -1.84244,1.0221 -2.57812,1.6796 -0.73567,0.6576 -1.2565,1.2956 -1.5625,1.9141 l -1.13281,0 z m -15.27343,0 1.75781,0 0,11.2012 c 0.42318,-0.4037 0.9782,-0.8073 1.66504,-1.211 0.68685,-0.4036 1.3037,-0.7063 1.85058,-0.9082 l 0,1.6993 c -0.98306,0.4622 -1.84244,1.0221 -2.57812,1.6796 -0.73567,0.6576 -1.2565,1.2956 -1.5625,1.9141 l -1.13281,0 z m -15.27343,0 1.75781,0 0,11.2012 c 0.42318,-0.4037 0.9782,-0.8073 1.66504,-1.211 0.68685,-0.4036 1.3037,-0.7063 1.85058,-0.9082 l 0,1.6993 c -0.98306,0.4622 -1.84244,1.0221 -2.57812,1.6796 -0.73567,0.6576 -1.2565,1.2956 -1.5625,1.9141 l -1.13281,0 z m -15.27343,0 1.75781,0 0,11.2012 c 0.42318,-0.4037 0.9782,-0.8073 1.66504,-1.211 0.68685,-0.4036 1.3037,-0.7063 1.85058,-0.9082 l 0,1.6993 c -0.98306,0.4622 -1.84244,1.0221 -2.57812,1.6796 -0.73567,0.6576 -1.2565,1.2956 -1.5625,1.9141 l -1.13281,0 z m -15.27343,0 1.75781,0 0,11.2012 c 0.42318,-0.4037 0.9782,-0.8073 1.66504,-1.211 0.68685,-0.4036 1.3037,-0.7063 1.85058,-0.9082 l 0,1.6993 c -0.98306,0.4622 -1.84244,1.0221 -2.57812,1.6796 -0.73567,0.6576 -1.2565,1.2956 -1.5625,1.9141 l -1.13281,0 z m -15.27343,0 1.75781,0 0,11.2012 c 0.42318,-0.4037 0.9782,-0.8073 1.66504,-1.211 0.68685,-0.4036 1.3037,-0.7063 1.85058,-0.9082 l 0,1.6993 c -0.98306,0.4622 -1.84244,1.0221 -2.57812,1.6796 -0.73567,0.6576 -1.2565,1.2956 -1.5625,1.9141 l -1.13281,0 z m -15.27343,0 1.75781,0 0,11.2012 c 0.42318,-0.4037 0.9782,-0.8073 1.66504,-1.211 0.68685,-0.4036 1.3037,-0.7063 1.85058,-0.9082 l 0,1.6993 c -0.98306,0.4622 -1.84244,1.0221 -2.57812,1.6796 -0.73567,0.6576 -1.2565,1.2956 -1.5625,1.9141 l -1.13281,0 z m -15.27343,0 1.75781,0 0,11.2012 c 0.42318,-0.4037 0.9782,-0.8073 1.66504,-1.211 0.68685,-0.4036 1.3037,-0.7063 1.85058,-0.9082 l 0,1.6993 c -0.98306,0.4622 -1.84244,1.0221 -2.57812,1.6796 -0.73567,0.6576 -1.2565,1.2956 -1.5625,1.9141 l -1.13281,0 z m -15.27343,0 1.75781,0 0,11.2012 c 0.42318,-0.4037 0.9782,-0.8073 1.66504,-1.211 0.68685,-0.4036 1.3037,-0.7063 1.85058,-0.9082 l 0,1.6993 c -0.98306,0.4622 -1.84244,1.0221 -2.57812,1.6796 -0.73567,0.6576 -1.2565,1.2956 -1.5625,1.9141 l -1.13281,0 z m -15.27343,0 1.75781,0 0,11.2012 c 0.42318,-0.4037 0.9782,-0.8073 1.66504,-1.211 0.68685,-0.4036 1.3037,-0.7063 1.85058,-0.9082 l 0,1.6993 c -0.98306,0.4622 -1.84244,1.0221 -2.57812,1.6796 -0.73567,0.6576 -1.2565,1.2956 -1.5625,1.9141 l -1.13281,0 z m -15.27343,0 1.75781,0 0,11.2012 c 0.42318,-0.4037 0.9782,-0.8073 1.66504,-1.211 0.68685,-0.4036 1.3037,-0.7063 1.85058,-0.9082 l 0,1.6993 c -0.98306,0.4622 -1.84244,1.0221 -2.57812,1.6796 -0.73567,0.6576 -1.2565,1.2956 -1.5625,1.9141 l -1.13281,0 z m -15.27343,0 1.75781,0 0,11.2012 c 0.42318,-0.4037 0.9782,-0.8073 1.66504,-1.211 0.68685,-0.4036 1.3037,-0.7063 1.85058,-0.9082 l 0,1.6993 c -0.98306,0.4622 -1.84244,1.0221 -2.57812,1.6796 -0.73567,0.6576 -1.2565,1.2956 -1.5625,1.9141 l -1.13281,0 z m -15.27343,0 1.75781,0 0,11.2012 c 0.42318,-0.4037 0.9782,-0.8073 1.66504,-1.211 0.68685,-0.4036 1.3037,-0.7063 1.85058,-0.9082 l 0,1.6993 c -0.98306,0.4622 -1.84244,1.0221 -2.57812,1.6796 -0.73567,0.6576 -1.2565,1.2956 -1.5625,1.9141 l -1.13281,0 z m -15.27343,0 1.75781,0 0,11.2012 c 0.42318,-0.4037 0.9782,-0.8073 1.66504,-1.211 0.68685,-0.4036 1.3037,-0.7063 1.85058,-0.9082 l 0,1.6993 c -0.98306,0.4622 -1.84244,1.0221 -2.57812,1.6796 -0.73567,0.6576 -1.2565,1.2956 -1.5625,1.9141 l -1.13281,0 z m -15.27343,0 1.75781,0 0,11.2012 c 0.42318,-0.4037 0.9782,-0.8073 1.66504,-1.211 0.68685,-0.4036 1.3037,-0.7063 1.85058,-0.9082 l 0,1.6993 c -0.98306,0.4622 -1.84244,1.0221 -2.57812,1.6796 -0.73567,0.6576 -1.2565,1.2956 -1.5625,1.9141 l -1.13281,0 z m -15.27343,0 1.75781,0 0,11.2012 c 0.42318,-0.4037 0.9782,-0.8073 1.66504,-1.211 0.68685,-0.4036 1.3037,-0.7063 1.85058,-0.9082 l 0,1.6993 c -0.98306,0.4622 -1.84244,1.0221 -2.57812,1.6796 -0.73567,0.6576 -1.2565,1.2956 -1.5625,1.9141 l -1.13281,0 z m -15.27343,0 1.75781,0 0,11.2012 c 0.42318,-0.4037 0.9782,-0.8073 1.66504,-1.211 0.68685,-0.4036 1.3037,-0.7063 1.85058,-0.9082 l 0,1.6993 c -0.98306,0.4622 -1.84244,1.0221 -2.57812,1.6796 -0.73567,0.6576 -1.2565,1.2956 -1.5625,1.9141 l -1.13281,0 z m -15.27343,0 1.75781,0 0,11.2012 c 0.42318,-0.4037 0.9782,-0.8073 1.66504,-1.211 0.68685,-0.4036 1.3037,-0.7063 1.85058,-0.9082 l 0,1.6993 c -0.98306,0.4622 -1.84244,1.0221 -2.57812,1.6796 -0.73567,0.6576 -1.2565,1.2956 -1.5625,1.9141 l -1.13281,0 z m -15.27343,0 1.75781,0 0,11.2012 c 0.42318,-0.4037 0.9782,-0.8073 1.66504,-1.211 0.68685,-0.4036 1.3037,-0.7063 1.85058,-0.9082 l 0,1.6993 c -0.98306,0.4622 -1.84244,1.0221 -2.57812,1.6796 -0.73567,0.6576 -1.2565,1.2956 -1.5625,1.9141 l -1.13281,0 z m -15.27343,0 1.75781,0 0,11.2012 c 0.42318,-0.4037 0.9782,-0.8073 1.66504,-1.211 0.68685,-0.4036 1.3037,-0.7063 1.85058,-0.9082 l 0,1.6993 c -0.98306,0.4622 -1.84244,1.0221 -2.57812,1.6796 -0.73567,0.6576 -1.2565,1.2956 -1.5625,1.9141 l -1.13281,0 z m -15.27343,0 1.75781,0 0,11.2012 c 0.42318,-0.4037 0.9782,-0.8073 1.66504,-1.211 0.68685,-0.4036 1.3037,-0.7063 1.85058,-0.9082 l 0,1.6993 c -0.98306,0.4622 -1.84244,1.0221 -2.57812,1.6796 -0.73567,0.6576 -1.2565,1.2956 -1.5625,1.9141 l -1.13281,0 z m -15.27343,0 1.75781,0 0,11.2012 c 0.42318,-0.4037 0.9782,-0.8073 1.66504,-1.211 0.68685,-0.4036 1.3037,-0.7063 1.85058,-0.9082 l 0,1.6993 c -0.98306,0.4622 -1.84244,1.0221 -2.57812,1.6796 -0.73567,0.6576 -1.2565,1.2956 -1.5625,1.9141 l -1.13281,0 z m -16.52441,0.9459 c 0.68244,-0.1261 1.36093,-0.2368 2.03492,-0.3338 l 1.51862,11.0806 c 0.32583,-0.4497 0.78506,-0.9121 1.39062,-1.377 0.60558,-0.4649 1.17633,-0.813 1.69288,-1.05 l 0.11537,1.6995 c -0.8949,0.5218 -1.63138,1.1515 -2.20556,1.8752 -0.57415,0.7239 -0.91988,1.4155 -1.07727,2.0615 -0.30865,0.044 -0.61358,0.093 -0.91463,0.1457 z m -17.63993,10.9216 c 0.19385,-0.3521 0.39715,-0.7045 0.61032,-1.0567 0.30075,-0.4211 0.61105,-0.8277 0.93006,-1.2197 l 8.76969,6.8576 c -0.15073,-0.4705 -0.20417,-1.0367 -0.0997,-1.6949 0.10457,-0.6581 0.3219,-1.2223 0.58514,-1.6637 l 1.00865,1.3595 c -0.32651,0.8005 -0.3778,1.6088 -0.17785,2.3614 0.20003,0.7526 0.59433,1.3314 1.04757,1.7872 -0.0185,0.036 -0.0357,0.072 -0.0516,0.109 -0.0832,0.099 -0.16192,0.2044 -0.23666,0.317 z m -3.99337,18.1265 c 0.0255,-0.6254 0.0562,-1.2547 0.0931,-1.8876 l 11.17524,0.6471 c -0.37956,-0.426 -0.74895,-0.9818 -1.099,-1.6721 -0.32275,-0.6367 -0.55598,-1.2166 -0.70361,-1.7337 -0.012,-0.043 -0.0234,-0.087 -0.0342,-0.1292 l 1.69118,0.1787 c 0.015,0.043 0.0303,0.085 0.0457,0.1268 0,0 0,0 0,0 0.35548,0.9192 0.83098,1.7285 1.41218,2.4267 0.60799,0.7302 1.22013,1.2467 1.82341,1.5599 -0.0173,0.3475 -0.0325,0.697 -0.0458,1.0482 z"
           id="path2985-7"
           inkscape:connector-curvature="0"
           sodipodi:nodetypes="cscscc"
           inkscape:path-effect="#path-effect3036-1"
           inkscape:original-d="m 164.11577,983.79557 709.99999,0 c 85.92329,0 98.57147,-2.1965 98.57147,15.71433 0,22.099 -11.89106,18.5714 -97.85718,18.5714 l -502.85715,0 c -27.72864,0 -27.85714,9.0003 -27.85714,33.5714" />
      </g>
    </g>
    <g
       id="g4064">
      <g
         id="g4002">
        <rect
           style="fill:#002255;fill-opacity:1;stroke:none"
           id="rect3941"
           width="13.435031"
           height="41.719299"
           x="149.90665"
           y="963.6203" />
        <rect
           style="fill:#002255;fill-opacity:1;stroke:none"
           id="rect3943"
           width="121.62238"
           height="27.930719"
           x="28.637825"
           y="969.63068" />
        <rect
           y="-124.31438"
           x="981.7879"
           height="105.71246"
           width="71.11628"
           id="rect3947"
           style="fill:#002255;fill-opacity:1;stroke:none"
           transform="matrix(0,1,-1,0,0,0)" />
        <rect
           style="fill:#002255;fill-opacity:1;stroke:none"
           id="rect3949"
           width="21.25"
           height="21.25"
           x="18.615223"
           y="969.61218"
           ry="9.5"
           rx="9.5" />
      </g>
      <path
         transform="matrix(1.4068286,0,0,1.4068286,-18.313279,925.89622)"
         d="m 66.25,64 a 17.25,17.25 0 1 1 -34.5,0 17.25,17.25 0 1 1 34.5,0 z"
         sodipodi:ry="17.25"
         sodipodi:rx="17.25"
         sodipodi:cy="64"
         sodipodi:cx="49"
         id="path4008"
         style="fill:#5284a7;fill-opacity:1;stroke:#000000;stroke-width:2;stroke-miterlimit:4;stroke-opacity:1;stroke-dasharray:none;opacity:1"
         sodipodi:type="arc" />
      <path
         transform="matrix(1.1000241,0,0,1.1000241,-5.2135125,947.89849)"
         d="m 44.75,49.625 a 2.625,2.625 0 1 1 -5.25,0 2.625,2.625 0 1 1 5.25,0 z"
         sodipodi:ry="2.625"
         sodipodi:rx="2.625"
         sodipodi:cy="49.625"
         sodipodi:cx="42.125"
         id="path4010"
         style="fill:#000000;fill-opacity:1;stroke:none"
         sodipodi:type="arc" />
      <rect
         y="981.9126"
         x="85.75"
         height="3.6995947"
         width="42"
         id="rect4012"
         style="fill:#5284a7;fill-opacity:1;stroke:#000000;stroke-width:1.508865;stroke-miterlimit:4;stroke-opacity:1;stroke-dasharray:none" />
      <path
         sodipodi:type="arc"
         style="fill:#000000;fill-opacity:1;stroke:none"
         id="path4014"
         sodipodi:cx="42.125"
         sodipodi:cy="49.625"
         sodipodi:rx="2.625"
         sodipodi:ry="2.625"
         d="m 44.75,49.625 a 2.625,2.625 0 1 1 -5.25,0 2.625,2.625 0 1 1 5.25,0 z"
         transform="matrix(1.1673676,0,0,1.1673676,64.199642,925.80657)" />
      <path
         inkscape:connector-curvature="0"
         id="path4016"
         d="m 41.25,1002.3622 72.5,-18.50002"
         style="fill:none;stroke:#000000;stroke-width:3;stroke-linecap:butt;stroke-linejoin:miter;stroke-miterlimit:4;stroke-opacity:1;stroke-dasharray:none" />
      <path
         transform="matrix(1.2871601,0,0,1.2871601,-14.21937,933.39411)"
         d="m 52.25,64.125 a 1.875,1.875 0 1 1 -3.75,0 1.875,1.875 0 1 1 3.75,0 z"
         sodipodi:ry="1.875"
         sodipodi:rx="1.875"
         sodipodi:cy="64.125"
         sodipodi:cx="50.375"
         id="path4062"
         style="fill:#0000ff;fill-opacity:1;stroke:#000000;stroke-opacity:1;stroke-width:2.3307124;stroke-miterlimit:4;stroke-dasharray:none"
         sodipodi:type="arc" />
    </g>
    <text
       xml:space="preserve"
       style="font-size:20px;font-style:normal;font-variant:normal;font-weight:normal;font-stretch:normal;line-height:125%;letter-spacing:0px;word-spacing:0px;fill:#ffffff;fill-opacity:1;stroke:none;font-family:Arial;-inkscape-font-specification:Arial"
       x="91.5"
       y="1035.1122"
       id="text4077"
       sodipodi:linespacing="125%"><tspan
         sodipodi:role="line"
         id="tspan4079"
         x="91.5"
         y="1035.1122">#2</tspan></text>
    <rect
       y="952.36218"
       x="0"
       height="100"
       width="1000"
       id="rect3918"
       style="fill:url(#radialGradient3926);fill-opacity:1;stroke:#552200;stroke-width:0;stroke-miterlimit:4;stroke-opacity:1;stroke-dasharray:none;stroke-dashoffset:0" />
  </g>
</svg>
